<svg width="465" height="229" viewBox="0 0 465 229" fill="none" xmlns="http://www.w3.org/2000/svg">
<path d="M260.703 227.486C249.778 227.86 236.799 227.486 227.461 227.393C218.31 227.767 205.051 227.86 194.22 227.486C204.958 221.411 208.786 210.009 209.346 202.625H245.483C246.323 209.916 250.058 221.411 260.703 227.486Z" fill="#F1F3FA" stroke="#D6DDE8" stroke-width="2" stroke-miterlimit="10"/>
<path d="M295.625 107.668V201.317C295.625 203.654 293.757 205.523 291.703 205.523H163.873C161.632 205.523 159.951 203.654 159.951 201.317V107.668C159.951 105.425 161.819 103.462 163.873 103.462H291.516C293.944 103.649 295.625 105.519 295.625 107.668Z" fill="white" stroke="#D6DDE8" stroke-width="2" stroke-miterlimit="10"/>
<path d="M295.626 107.761V188.419H159.858V107.761C159.858 105.518 161.726 103.556 163.78 103.556H291.424C293.945 103.649 295.626 105.518 295.626 107.761Z" fill="white" stroke="#D6DDE8" stroke-width="2" stroke-miterlimit="10"/>
<path d="M227.649 199.915C229.516 199.915 231.01 198.513 231.01 196.55C231.01 194.681 229.609 193.186 227.649 193.186C225.781 193.186 224.287 194.587 224.287 196.55C224.287 198.419 225.688 199.915 227.649 199.915Z" fill="#D6DDE8"/>
<path d="M26.2383 227.767H452.962" stroke="#D6DDE8" stroke-width="2" stroke-miterlimit="10" stroke-linecap="round" stroke-linejoin="round"/>
<path d="M310.658 159.539C314.02 159.539 316.728 156.829 316.728 153.464C316.728 150.1 314.02 147.389 310.658 147.389C307.297 147.389 304.589 150.1 304.589 153.464C304.682 156.829 307.297 159.539 310.658 159.539Z" fill="#F1F3FA"/>
<path d="M429.525 100.752L430.366 100.378" stroke="#D6DDE8" stroke-width="2" stroke-miterlimit="10" stroke-linecap="round" stroke-linejoin="round"/>
<path d="M429.619 120.472C429.899 120.192 430.086 120.005 430.179 119.911C430.179 119.911 430.833 119.351 430.833 119.257L431.299 118.883C431.673 118.696 432.327 118.042 433.447 117.762C435.315 117.201 436.435 117.762 437.089 117.668C437.182 117.668 437.369 117.575 437.369 117.575C437.556 117.481 437.742 117.388 437.742 117.388C438.303 116.921 438.116 116.921 441.104 97.4805L441.197 97.0132C441.291 96.4525 440.824 96.0786 440.263 96.0786H440.17H440.077L439.423 96.359L432.14 99.5367L431.953 99.6302C418.694 105.425 420.655 103.836 421.495 107.574C421.682 108.042 421.962 109.724 421.402 111.313C421.215 111.967 420.841 112.528 420.281 113.463L429.619 120.472ZM427.751 113.463C426.537 112.528 426.257 110.752 427.191 109.444C428.125 108.229 429.899 107.948 431.113 108.883C432.327 109.818 432.607 111.593 431.673 112.808C430.739 114.117 428.965 114.397 427.751 113.463Z" stroke="#D6DDE8" stroke-width="2" stroke-miterlimit="10" stroke-linecap="round" stroke-linejoin="round"/>
<path d="M431.393 108.696L440.076 97.3872" stroke="#D6DDE8" stroke-width="2" stroke-miterlimit="10" stroke-linecap="round" stroke-linejoin="round"/>
<path d="M443.532 96.4527C450.721 102.808 454.737 112.995 451.655 123.93M411.971 93.275C421.588 87.5738 432.233 88.6954 440.17 93.8358M441.291 92.2469L425.977 80.4707M460.152 106.733L444.839 94.9573M462.113 106.266C462.487 106.266 462.86 106.36 463.234 106.64C464.074 107.294 464.261 108.509 463.607 109.35C462.954 110.192 461.74 110.379 460.899 109.724C460.526 109.444 460.339 109.07 460.246 108.696C460.059 108.135 460.152 107.481 460.526 107.014C460.899 106.453 461.553 106.173 462.113 106.266ZM424.203 77.1061C424.576 77.1061 424.95 77.1996 425.323 77.4799C426.164 78.1342 426.351 79.3492 425.697 80.1903C425.043 81.0315 423.829 81.2184 422.989 80.5642C422.616 80.2838 422.429 79.9099 422.335 79.5361C422.149 78.9753 422.242 78.3211 422.616 77.8538C422.989 77.293 423.643 77.0126 424.203 77.1061ZM448.387 128.604L447.92 124.865L450.441 124.491L451.655 124.304L452.029 127.295L452.122 127.949L448.387 128.604ZM408.329 97.8546L407.862 94.1161L410.383 93.7423L411.597 93.5554L411.971 96.5462L412.064 97.2004L408.329 97.8546ZM440.73 96.4527L440.263 92.7142L442.785 92.3404L443.998 92.1534L444.372 95.1442L444.465 95.7985L440.73 96.4527Z" stroke="#D6DDE8" stroke-width="2" stroke-miterlimit="10" stroke-linecap="round" stroke-linejoin="round"/>
<path d="M423.175 125.613L414.772 119.164C414.305 118.79 414.211 118.136 414.585 117.669L416.266 115.426L417.666 113.65L418.04 113.089C418.413 112.622 419.067 112.528 419.534 112.902L430.272 121.22C430.739 121.594 430.832 122.248 430.459 122.716L427.004 127.202C426.63 127.669 425.977 127.763 425.51 127.389L425.136 127.108L423.175 125.613Z" fill="#D6DCE8" stroke="#AAB2C5" stroke-width="2" stroke-miterlimit="10" stroke-linejoin="round"/>
<path d="M81.9823 117.949L52.4758 110.565C51.9156 110.472 51.4487 110.098 51.0752 109.724L47.3402 105.892L45.0992 103.556C44.6323 103.088 44.8191 102.247 45.4727 102.06L48.5541 101.126L53.6897 99.5367C54.2499 99.3498 54.8102 99.3498 55.3704 99.4432L84.8769 106.827C85.9974 107.107 86.6511 108.229 86.3709 109.35L84.5968 116.453C84.2233 117.481 83.1028 118.229 81.9823 117.949Z" fill="white" stroke="#D6DDE8" stroke-width="2" stroke-miterlimit="10"/>
<path d="M81.9832 117.949L77.3145 116.734L80.1157 105.612L84.7845 106.827C85.905 107.107 86.5586 108.229 86.2785 109.35L84.5043 116.453C84.2242 117.481 83.1037 118.229 81.9832 117.949Z" fill="#F1F3FA" stroke="#D6DDE8" stroke-width="2" stroke-miterlimit="10"/>
<path d="M47.2474 105.892L45.0064 103.555C44.5395 103.088 44.7263 102.247 45.3799 102.06L48.4613 101.125L47.2474 105.892Z" fill="#D6DCE8" stroke="#D6DDE8" stroke-width="2" stroke-miterlimit="10"/>
<path d="M77.5942 104.958L74.793 116.173" stroke="#D6DDE8" stroke-width="2" stroke-miterlimit="10"/>
<path d="M54.811 99.2563L52.0098 110.378" stroke="#D6DDE8" stroke-width="2" stroke-miterlimit="10"/>
<path d="M76.6608 108.509L53.9707 102.808" stroke="#D6DDE8" stroke-width="2" stroke-miterlimit="10"/>
<path d="M75.7268 112.341L52.9434 106.64" stroke="#D6DDE8" stroke-width="2" stroke-miterlimit="10"/>
<path d="M160.896 42.4154L128.989 27.0918L113.68 59.0283L145.587 74.3519L160.896 42.4154Z" stroke="#D6DDE8" stroke-width="2" stroke-miterlimit="10"/>
<path d="M143.05 75.5174L124.469 82.0597L143.05 75.5174ZM167.141 67.0123L148.279 73.6481L167.141 67.0123ZM167.795 64.9562C168.075 64.5823 168.355 64.302 168.822 64.2085C169.849 63.8346 171.063 64.3954 171.436 65.4235C171.81 66.4516 171.25 67.6666 170.222 68.0404C169.756 68.2274 169.382 68.2274 168.915 68.0404C168.355 67.8535 167.795 67.3862 167.608 66.732C167.328 66.1712 167.421 65.517 167.795 64.9562ZM120.547 81.6859C120.827 81.312 121.107 81.0316 121.574 80.9382C122.601 80.5643 123.815 81.1251 124.189 82.1532C124.562 83.1813 124.002 84.3963 122.975 84.7701C122.508 84.957 122.134 84.957 121.667 84.7701C121.107 84.5832 120.547 84.1159 120.36 83.4616C120.08 82.8074 120.173 82.1532 120.547 81.6859ZM146.599 77.1997L143.05 75.5174L144.171 73.0874L144.731 71.9658L147.626 73.3678L148.279 73.6481L146.599 77.1997Z" fill="#F1F3FA" stroke="#D6DDE8" stroke-width="2" stroke-miterlimit="10"/>
<path d="M126.71 28.7867L108.128 35.329L126.71 28.7867ZM150.707 20.3751L131.846 27.0109L150.707 20.3751ZM151.454 18.319C151.735 17.9451 152.015 17.6647 152.482 17.5713C153.509 17.1974 154.723 17.7582 155.096 18.7863C155.47 19.8144 154.909 21.0294 153.882 21.4032C153.415 21.5901 153.042 21.5901 152.575 21.4032C152.015 21.2163 151.454 20.749 151.268 20.0948C150.988 19.4405 151.081 18.7863 151.454 18.319ZM104.113 34.9552C104.393 34.5813 104.674 34.301 105.14 34.2075C106.168 33.8336 107.381 34.3944 107.755 35.4225C108.128 36.4506 107.568 37.6656 106.541 38.0394C106.074 38.2264 105.701 38.2264 105.234 38.0394C104.674 37.8525 104.113 37.3852 103.927 36.731C103.646 36.0767 103.74 35.4225 104.113 34.9552ZM130.258 30.469L126.71 28.7867L127.831 26.3567L128.391 25.2352L131.285 26.6371L131.939 26.9175L130.258 30.469ZM114.758 61.7787L111.21 60.0964L112.33 57.6664L112.891 56.5449L115.785 57.9468L116.439 58.2272L114.758 61.7787ZM163.873 41.591L162.193 45.1425L159.765 44.021L158.644 43.4602L160.045 40.5629L160.325 39.9087L163.873 41.591Z" fill="#F1F3FA" stroke="#D6DDE8" stroke-width="2" stroke-miterlimit="10"/>
<path d="M138.475 53.6475L127.924 57.386C127.364 57.5729 126.804 57.2925 126.617 56.7317L122.882 46.1705C122.695 45.6098 122.975 45.049 123.535 44.8621L134.087 41.1236C134.647 40.9367 135.207 41.2171 135.394 41.7778L139.129 52.339C139.316 52.8998 139.036 53.4606 138.475 53.6475Z" fill="#F1F3FA" stroke="#D6DDE8" stroke-width="2" stroke-miterlimit="10"/>
<path d="M145.105 55.6105L138.942 59.5359C137.542 60.377 135.768 60.0032 134.834 58.6012L130.912 52.4327C130.072 51.0308 130.445 49.255 131.846 48.3204L138.009 44.395C139.409 43.5539 141.183 43.9277 142.117 45.3296L146.039 51.4981C146.879 52.9001 146.412 54.7693 145.105 55.6105Z" fill="#F1F3FA" stroke="#D6DDE8" stroke-width="2" stroke-miterlimit="10"/>
<path d="M150.614 57.8534C149.027 61.1245 145.105 62.5264 141.837 60.9376C138.569 59.3487 137.168 55.4233 138.756 52.1522C140.343 48.881 144.265 47.4791 147.533 49.0679C150.801 50.5633 152.202 54.4887 150.614 57.8534Z" fill="#D6DCE8" stroke="#AAB2C5" stroke-width="2" stroke-miterlimit="10" stroke-linejoin="round"/>
<path d="M99.5374 154.025H87.2119V191.223H99.5374V154.025Z" fill="white" stroke="#D6DDE8" stroke-width="2" stroke-miterlimit="10"/>
<path d="M99.5374 160.473H94.4951" stroke="#D6DDE8" stroke-width="2" stroke-miterlimit="10" stroke-linecap="round" stroke-linejoin="round"/>
<path d="M99.5374 166.922H94.4951" stroke="#D6DDE8" stroke-width="2" stroke-miterlimit="10" stroke-linecap="round" stroke-linejoin="round"/>
<path d="M99.5374 173.465H94.4951" stroke="#D6DDE8" stroke-width="2" stroke-miterlimit="10" stroke-linecap="round" stroke-linejoin="round"/>
<path d="M99.5374 179.914H94.4951" stroke="#D6DDE8" stroke-width="2" stroke-miterlimit="10" stroke-linecap="round" stroke-linejoin="round"/>
<path d="M115.411 172.998L113.077 168.418L112.797 168.885L112.89 168.325L108.128 170.1C108.128 170.1 101.872 179.821 96.8296 192.812C94.0284 200.195 97.67 199.821 101.498 198.139C103.179 201.878 105.607 204.681 108.502 197.298C113.45 184.494 115.411 172.998 115.411 172.998Z" fill="#F1F3FA" stroke="#D6DDE8" stroke-width="2" stroke-miterlimit="10" stroke-linecap="round" stroke-linejoin="round"/>
<path d="M120.081 169.633C118.68 173.278 114.572 175.054 110.93 173.652C107.289 172.25 105.514 168.138 106.915 164.493C108.036 161.502 115.319 155.707 117.933 153.651C118.4 153.277 119.054 153.558 119.147 154.118C119.801 157.577 121.201 166.736 120.081 169.633Z" fill="white" stroke="#D6DDE8" stroke-width="2" stroke-miterlimit="10"/>
<path d="M77.875 197.298L67.7905 168.044C67.6037 167.483 67.6037 166.922 67.6971 166.362L68.911 161.034L69.6579 157.857C69.8447 157.202 70.5917 156.922 71.152 157.296L73.6731 159.352L77.875 162.81C78.3418 163.184 78.622 163.651 78.8087 164.212L88.8932 193.466C89.2667 194.587 88.7065 195.802 87.586 196.176L80.5828 198.606C79.369 198.98 78.2485 198.326 77.875 197.298Z" fill="white" stroke="#D6DDE8" stroke-width="2" stroke-miterlimit="10"/>
<path d="M77.8745 197.298L76.2871 192.625L87.3054 188.793L88.8927 193.466C89.2662 194.588 88.706 195.803 87.5855 196.176L80.5824 198.606C79.3685 198.98 78.248 198.326 77.8745 197.298Z" fill="#F1F3FA" stroke="#D6DDE8" stroke-width="2" stroke-miterlimit="10"/>
<path d="M68.8174 160.941L69.5644 157.763C69.7511 157.109 70.4981 156.829 71.0584 157.203L73.5795 159.259L68.8174 160.941Z" fill="#D6DDE8" stroke="#D6DDE8" stroke-width="2" stroke-miterlimit="10"/>
<path d="M86.3718 186.363L75.3535 190.101" stroke="#D6DDE8" stroke-width="2" stroke-miterlimit="10"/>
<path d="M78.6221 163.838L67.6973 167.577" stroke="#D6DDE8" stroke-width="2" stroke-miterlimit="10"/>
<path d="M81.3302 188.232L73.5801 165.708" stroke="#D6DDE8" stroke-width="2" stroke-miterlimit="10"/>
<path d="M70.2181 182.438H116.532C116.532 182.438 121.761 200.756 105.42 213C105.42 226.271 105.42 227.58 105.42 227.58H81.7032V217.673H71.0585V204.495L63.4951 202.625L70.1247 190.756C69.191 187.017 69.3777 185.241 70.2181 182.438Z" fill="white" stroke="#D6DDE8" stroke-width="2" stroke-miterlimit="10" stroke-linecap="round" stroke-linejoin="round"/>
<path d="M79.6489 192.157C76.7543 192.157 74.4199 189.821 74.4199 186.83H76.194C76.194 188.793 77.7814 190.382 79.7423 190.382C81.7032 190.382 83.2905 188.793 83.2905 186.83H85.0647C84.9713 189.821 82.5435 192.157 79.6489 192.157Z" fill="#D6DDE8"/>
<path d="M140.809 201.13L114.664 227.299C113.731 228.234 112.237 228.234 111.303 227.299L99.631 215.616C98.6972 214.682 98.6972 213.186 99.631 212.252L125.776 186.082C126.71 185.148 128.204 185.148 129.137 186.082L140.809 197.765C141.743 198.606 141.743 200.195 140.809 201.13Z" fill="white" stroke="#D6DDE8" stroke-width="2" stroke-miterlimit="10"/>
<path d="M140.809 201.13L132.872 209.074L117.839 194.027L125.776 186.082C126.709 185.148 128.203 185.148 129.137 186.082L140.809 197.765C141.743 198.606 141.743 200.195 140.809 201.13Z" fill="#F1F3FA" stroke="#D6DDE8" stroke-width="2" stroke-miterlimit="10"/>
<path d="M117.832 193.904L107.862 203.883L122.916 218.951L132.886 208.972L117.832 193.904Z" fill="white" stroke="#D6DDE8" stroke-width="2" stroke-miterlimit="10"/>
<path d="M143.61 214.214L108.968 227.112C107.754 227.579 106.354 226.925 105.887 225.71L100.098 210.289C99.6308 209.074 100.284 207.672 101.498 207.205L136.14 194.307C137.354 193.84 138.755 194.494 139.222 195.709L145.011 211.13C145.478 212.438 144.824 213.747 143.61 214.214Z" fill="white" stroke="#D6DDE8" stroke-width="2" stroke-miterlimit="10"/>
<path d="M143.61 214.214L133.152 218.14L125.775 198.232L136.233 194.307C137.447 193.84 138.848 194.494 139.315 195.709L145.104 211.13C145.478 212.438 144.824 213.747 143.61 214.214Z" fill="white" stroke="#D6DDE8" stroke-width="2" stroke-miterlimit="10"/>
<path d="M125.75 198.217L112.534 203.136L119.956 223.109L133.171 218.19L125.75 198.217Z" fill="#F1F3FA" stroke="#D6DDE8" stroke-width="2" stroke-miterlimit="10"/>
<path d="M142.304 227.953H105.327C104.02 227.953 102.899 226.832 102.899 225.523V209.074C102.899 207.766 103.927 206.644 105.327 206.644H142.304C143.611 206.644 144.731 207.672 144.731 209.074V225.523C144.638 226.832 143.611 227.953 142.304 227.953Z" fill="white" stroke="#D6DDE8" stroke-width="2" stroke-miterlimit="10"/>
<path d="M142.304 227.953H131.099V206.644H142.304C143.611 206.644 144.731 207.672 144.731 209.074V225.523C144.638 226.832 143.611 227.953 142.304 227.953Z" fill="white" stroke="#D6DDE8" stroke-width="2" stroke-miterlimit="10"/>
<path d="M131.099 206.644H116.999V227.953H131.099V206.644Z" fill="#F1F3FA" stroke="#D6DDE8" stroke-width="2" stroke-miterlimit="10"/>
<path d="M109.808 219.635C111.304 219.635 112.516 218.422 112.516 216.925C112.516 215.428 111.304 214.214 109.808 214.214C108.313 214.214 107.101 215.428 107.101 216.925C107.101 218.422 108.313 219.635 109.808 219.635Z" fill="white" stroke="#D6DDE8" stroke-width="2" stroke-miterlimit="10"/>
<path d="M364.162 227.767H331.388C327.373 227.767 324.104 224.496 324.104 220.477V177.858H371.446V220.477C371.446 224.496 368.178 227.767 364.162 227.767Z" fill="#F1F3FA" stroke="#D6DDE8" stroke-width="2" stroke-miterlimit="10"/>
<path d="M365.096 177.858V192.719C365.096 194.027 363.975 195.149 362.668 195.149C361.361 195.149 360.24 194.027 360.24 192.719V183.186C360.24 181.877 359.12 180.756 357.813 180.756C356.505 180.756 355.385 181.877 355.385 183.186V188.513C355.385 189.822 354.264 190.943 352.957 190.943C351.65 190.943 350.529 189.822 350.529 188.513V187.859C350.529 186.55 349.409 185.429 348.102 185.429C346.794 185.429 345.674 186.55 345.674 187.859V202.158C345.674 203.467 344.553 204.588 343.246 204.588C341.939 204.588 340.818 203.467 340.818 202.158V177.858H365.096Z" fill="#D6DCE8" stroke="#AAB2C5" stroke-width="2" stroke-miterlimit="10" stroke-linejoin="round"/>
<path d="M371.539 184.961H375.648C375.648 200.382 363.136 212.906 347.729 212.906C332.322 212.906 319.81 200.382 319.81 184.961H324.105" stroke="#D6DDE8" stroke-width="2" stroke-miterlimit="10" stroke-linecap="round" stroke-linejoin="round"/>
<path d="M373.313 179.073H322.61C321.957 179.073 321.396 178.512 321.396 177.858C321.396 177.204 321.957 176.643 322.61 176.643H373.313C373.967 176.643 374.527 177.204 374.527 177.858C374.527 178.512 373.967 179.073 373.313 179.073Z" fill="#D6DCE8" stroke="#AAB2C5" stroke-width="2" stroke-miterlimit="10" stroke-linejoin="round"/>
<path opacity="0.3" d="M256.221 107.762V164.68C256.221 168.138 253.419 170.848 250.058 170.848H175.545C172.09 170.848 169.382 168.045 169.382 164.68V107.762C169.382 106.079 170.035 104.584 171.063 103.462H254.54C255.567 104.584 256.221 106.079 256.221 107.762Z" fill="#F1F3FA"/>
<path d="M254.446 165.521H179.933C176.478 165.521 173.771 162.717 173.771 159.352V102.434C173.771 98.976 176.572 96.2656 179.933 96.2656H254.446C257.901 96.2656 260.609 99.0695 260.609 102.434V159.352C260.703 162.717 257.901 165.521 254.446 165.521Z" fill="white" stroke="#D6DDE8" stroke-width="2" stroke-miterlimit="10"/>
<path d="M173.771 107.294H260.703" stroke="#D6DDE8" stroke-width="2" stroke-miterlimit="10"/>
<path d="M179.747 103.275C180.681 103.275 181.428 102.621 181.428 101.593C181.428 100.658 180.774 99.9106 179.747 99.9106C178.813 99.9106 178.066 100.565 178.066 101.593C178.066 102.528 178.813 103.275 179.747 103.275Z" fill="#D6DDE8"/>
<path d="M184.415 103.275C185.349 103.275 186.096 102.621 186.096 101.593C186.096 100.658 185.442 99.9106 184.415 99.9106C183.481 99.9106 182.734 100.565 182.734 101.593C182.734 102.528 183.388 103.275 184.415 103.275Z" fill="#D6DDE8"/>
<path d="M188.991 103.275C189.925 103.275 190.672 102.621 190.672 101.593C190.672 100.658 190.018 99.9106 188.991 99.9106C188.058 99.9106 187.311 100.565 187.311 101.593C187.311 102.528 188.058 103.275 188.991 103.275Z" fill="#D6DDE8"/>
<path d="M230.076 120.753H203.091V148.324H230.076V120.753Z" stroke="#D6DDE8" stroke-width="2" stroke-miterlimit="10" stroke-linecap="round" stroke-linejoin="round"/>
<path d="M206.265 117.575H199.916V123.931H206.265V117.575Z" fill="#D6DCE8" stroke="#AAB2C5" stroke-width="2" stroke-miterlimit="10" stroke-linejoin="round"/>
<path d="M233.251 117.575H226.901V123.931H233.251V117.575Z" fill="#D6DCE8" stroke="#AAB2C5" stroke-width="2" stroke-miterlimit="10" stroke-linejoin="round"/>
<path d="M206.265 145.053H199.916V151.408H206.265V145.053Z" fill="#D6DCE8" stroke="#AAB2C5" stroke-width="2" stroke-miterlimit="10" stroke-linejoin="round"/>
<path d="M221.112 138.978L236.332 144.024L231.944 146.268L236.426 150.847L233.158 154.118L228.769 149.726L226.155 154.118L221.112 138.978Z" fill="#D6DCE8" stroke="#AAB2C5" stroke-width="2" stroke-miterlimit="10" stroke-linejoin="round"/>
<path d="M171.343 26.6368H170.596C169.382 26.6368 168.449 25.7021 168.449 24.4871V23.7394C168.449 22.8048 167.702 22.0571 166.768 22.0571C165.834 22.0571 165.087 22.8048 165.087 23.7394V24.4871C165.087 25.7021 164.153 26.6368 162.939 26.6368H162.192C161.259 26.6368 160.512 27.3845 160.512 28.3191C160.512 29.2537 161.259 30.0014 162.192 30.0014H162.939C164.153 30.0014 165.087 30.936 165.087 32.151V32.8987C165.087 33.8333 165.834 34.581 166.768 34.581C167.702 34.581 168.449 33.8333 168.449 32.8987V32.151C168.449 30.936 169.382 30.0014 170.596 30.0014H171.343C172.277 30.0014 173.024 29.2537 173.024 28.3191C173.024 27.3845 172.277 26.6368 171.343 26.6368Z" fill="#D6DDE8"/>
<path d="M110.555 97.9482H109.902C108.968 97.9482 108.128 97.2005 108.128 96.1724V95.5181C108.128 94.7704 107.474 94.1162 106.727 94.1162C105.98 94.1162 105.326 94.7704 105.326 95.5181V96.1724C105.326 97.107 104.579 97.9482 103.552 97.9482H102.899C102.152 97.9482 101.498 98.6024 101.498 99.3501C101.498 100.098 102.152 100.752 102.899 100.752H103.552C104.486 100.752 105.326 101.5 105.326 102.528V103.182C105.326 103.93 105.98 104.584 106.727 104.584C107.474 104.584 108.128 103.93 108.128 103.182V102.528C108.128 101.593 108.875 100.752 109.902 100.752H110.555C111.302 100.752 111.956 100.098 111.956 99.3501C111.956 98.6024 111.396 97.9482 110.555 97.9482Z" fill="#D6DDE8"/>
<path d="M233.811 3.73847H233.158C232.224 3.73847 231.384 2.99078 231.384 1.9627V1.40193C231.384 0.654233 230.73 0 229.983 0C229.236 0 228.582 0.654233 228.582 1.40193V2.05616C228.582 2.99078 227.835 3.83194 226.808 3.83194H226.155C225.408 3.83194 224.754 4.48617 224.754 5.23386C224.754 5.98156 225.408 6.63579 226.155 6.63579H226.808C227.742 6.63579 228.582 7.38349 228.582 8.41157V9.0658C228.582 9.8135 229.236 10.4677 229.983 10.4677C230.73 10.4677 231.384 9.8135 231.384 9.0658V8.22464C231.384 7.29003 232.131 6.44887 233.158 6.44887H233.811C234.558 6.44887 235.212 5.79464 235.212 5.04694C235.212 4.39271 234.558 3.73847 233.811 3.73847Z" fill="#D6DDE8"/>
<path d="M416.826 37.5713H416.079C414.865 37.5713 413.931 36.6367 413.931 35.4217V34.674C413.931 33.7394 413.184 32.9917 412.25 32.9917C411.317 32.9917 410.57 33.7394 410.57 34.674V35.4217C410.57 36.6367 409.636 37.5713 408.422 37.5713H407.675C406.741 37.5713 405.994 38.319 405.994 39.2536C405.994 40.1883 406.741 40.936 407.675 40.936H408.422C409.636 40.936 410.57 41.8706 410.57 43.0856V43.8333C410.57 44.7679 411.317 45.5156 412.25 45.5156C413.184 45.5156 413.931 44.7679 413.931 43.8333V43.0856C413.931 41.8706 414.865 40.936 416.079 40.936H416.826C417.759 40.936 418.506 40.1883 418.506 39.2536C418.506 38.319 417.759 37.5713 416.826 37.5713Z" fill="#D6DDE8"/>
<path d="M399.458 146.548H398.711C397.498 146.548 396.564 145.614 396.564 144.399V143.651C396.564 142.716 395.817 141.969 394.883 141.969C393.949 141.969 393.202 142.716 393.202 143.651V144.399C393.202 145.614 392.269 146.548 391.055 146.548H390.308C389.374 146.548 388.627 147.296 388.627 148.231C388.627 149.165 389.374 149.913 390.308 149.913H391.055C392.269 149.913 393.202 150.848 393.202 152.063V152.81C393.202 153.745 393.949 154.493 394.883 154.493C395.817 154.493 396.564 153.745 396.564 152.81V152.063C396.564 150.848 397.498 149.913 398.711 149.913H399.458C400.392 149.913 401.139 149.165 401.139 148.231C401.139 147.296 400.392 146.548 399.458 146.548Z" fill="#D6DDE8"/>
<path d="M446.706 178.045H446.239C445.492 178.045 444.932 177.484 444.932 176.737V176.269C444.932 175.709 444.465 175.241 443.905 175.241C443.344 175.241 442.877 175.709 442.877 176.269V176.737C442.877 177.484 442.317 178.045 441.57 178.045H441.103C440.543 178.045 440.076 178.512 440.076 179.073C440.076 179.634 440.543 180.101 441.103 180.101H441.57C442.317 180.101 442.877 180.662 442.877 181.41V181.877C442.877 182.438 443.344 182.905 443.905 182.905C444.465 182.905 444.932 182.438 444.932 181.877V181.41C444.932 180.662 445.492 180.101 446.239 180.101H446.706C447.266 180.101 447.733 179.634 447.733 179.073C447.733 178.512 447.266 178.045 446.706 178.045Z" fill="#D6DDE8"/>
<path d="M403.006 201.224H402.633C402.072 201.224 401.605 200.756 401.605 200.195V199.822C401.605 199.354 401.232 198.98 400.765 198.98C400.298 198.98 399.925 199.354 399.925 199.822V200.195C399.925 200.756 399.458 201.224 398.897 201.224H398.524C398.057 201.224 397.684 201.597 397.684 202.065C397.684 202.532 398.057 202.906 398.524 202.906H398.897C399.458 202.906 399.925 203.373 399.925 203.934V204.308C399.925 204.775 400.298 205.149 400.765 205.149C401.232 205.149 401.605 204.775 401.605 204.308V203.934C401.605 203.373 402.072 202.906 402.633 202.906H403.006C403.473 202.906 403.846 202.532 403.846 202.065C403.753 201.597 403.38 201.224 403.006 201.224Z" fill="#D6DDE8"/>
<path d="M317.755 123.089H317.381C316.821 123.089 316.354 122.622 316.354 122.061V121.687C316.354 121.22 315.981 120.846 315.514 120.846C315.047 120.846 314.674 121.22 314.674 121.687V122.061C314.674 122.622 314.207 123.089 313.646 123.089H313.273C312.806 123.089 312.433 123.463 312.433 123.93C312.433 124.398 312.806 124.772 313.273 124.772H313.646C314.207 124.772 314.674 125.239 314.674 125.8V126.174C314.674 126.641 315.047 127.015 315.514 127.015C315.981 127.015 316.354 126.641 316.354 126.174V125.8C316.354 125.239 316.821 124.772 317.381 124.772H317.755C318.222 124.772 318.595 124.398 318.595 123.93C318.595 123.463 318.222 123.089 317.755 123.089Z" fill="#D6DDE8"/>
<path d="M31.1873 155.801H30.7204C29.9734 155.801 29.3198 155.147 29.3198 154.399V153.932C29.3198 153.277 28.8529 152.81 28.1993 152.81C27.5457 152.81 27.0788 153.277 27.0788 153.932V154.399C27.0788 155.147 26.4252 155.801 25.6782 155.801H25.2113C24.5577 155.801 24.0908 156.268 24.0908 156.922C24.0908 157.577 24.5577 158.044 25.2113 158.044H25.6782C26.4252 158.044 27.0788 158.698 27.0788 159.446V159.913C27.0788 160.567 27.5457 161.035 28.1993 161.035C28.8529 161.035 29.3198 160.567 29.3198 159.913V159.446C29.3198 158.698 29.9734 158.044 30.7204 158.044H31.1873C31.8409 158.044 32.3078 157.577 32.3078 156.922C32.3078 156.268 31.8409 155.801 31.1873 155.801Z" fill="#D6DDE8"/>
<path d="M5.69587 93.2747H5.32237C4.66875 93.2747 4.20187 92.8074 4.20187 92.1532V91.7793C4.20187 91.312 3.82837 90.8447 3.26812 90.8447C2.80125 90.8447 2.33437 91.2186 2.33437 91.7793V92.1532C2.33437 92.8074 1.8675 93.2747 1.21387 93.2747H0.93375C0.466875 93.2747 0 93.6486 0 94.2094C0 94.6767 0.3735 95.144 0.93375 95.144H1.30725C1.96087 95.144 2.42775 95.6113 2.42775 96.2655V96.6394C2.42775 97.1067 2.80125 97.574 3.3615 97.574C3.82837 97.574 4.29525 97.2001 4.29525 96.6394V96.2655C4.29525 95.6113 4.76212 95.144 5.41575 95.144H5.78925C6.25612 95.144 6.723 94.7701 6.723 94.2094C6.62962 93.7421 6.25612 93.2747 5.69587 93.2747Z" fill="#D6DDE8"/>
<path d="M57.2385 54.1146H56.865C56.2113 54.1146 55.7445 53.6473 55.7445 52.993V52.6192C55.7445 52.1519 55.371 51.6846 54.8107 51.6846C54.3438 51.6846 53.877 52.0584 53.877 52.6192V52.993C53.877 53.6473 53.4101 54.1146 52.7565 54.1146H52.383C51.9161 54.1146 51.4492 54.4884 51.4492 55.0492C51.4492 55.5165 51.8227 55.9838 52.383 55.9838H52.7565C53.4101 55.9838 53.877 56.4511 53.877 57.1054V57.4792C53.877 57.9465 54.2505 58.4138 54.8107 58.4138C55.2776 58.4138 55.7445 58.04 55.7445 57.4792V57.0119C55.7445 56.3577 56.2113 55.8904 56.865 55.8904H57.2385C57.7053 55.8904 58.1722 55.5165 58.1722 54.9557C58.1722 54.4884 57.7053 54.1146 57.2385 54.1146Z" fill="#D6DDE8"/>
<path d="M258.649 30.9355C255.754 30.9355 253.42 28.599 253.42 25.7016C253.42 22.8043 255.754 20.4678 258.649 20.4678C261.544 20.4678 263.878 22.8043 263.878 25.7016C263.878 28.599 261.544 30.9355 258.649 30.9355ZM258.649 23.3651C257.342 23.3651 256.221 24.3932 256.221 25.7951C256.221 27.197 257.248 28.2251 258.649 28.2251C259.956 28.2251 261.077 27.197 261.077 25.7951C261.077 24.3932 259.956 23.3651 258.649 23.3651Z" fill="#D6DDE8"/>
<path d="M104.207 139.445C101.312 139.445 98.9775 137.109 98.9775 134.211C98.9775 131.314 101.312 128.978 104.207 128.978C107.101 128.978 109.436 131.314 109.436 134.211C109.436 137.109 107.008 139.445 104.207 139.445ZM104.207 131.781C102.899 131.781 101.779 132.809 101.779 134.211C101.779 135.613 102.806 136.641 104.207 136.641C105.607 136.641 106.634 135.613 106.634 134.211C106.634 132.809 105.514 131.781 104.207 131.781Z" fill="#D6DDE8"/>
<path d="M341.099 78.3211C339.045 78.3211 337.271 76.6388 337.271 74.4892C337.271 72.3395 338.951 70.6572 341.099 70.6572C343.153 70.6572 344.927 72.3395 344.927 74.4892C344.927 76.6388 343.246 78.3211 341.099 78.3211ZM341.099 72.7134C340.165 72.7134 339.325 73.4611 339.325 74.4892C339.325 75.4238 340.072 76.2649 341.099 76.2649C342.033 76.2649 342.873 75.5172 342.873 74.4892C342.873 73.5545 342.126 72.7134 341.099 72.7134Z" fill="#D6DDE8"/>
<path d="M329.427 52.0588L329.053 51.4046C328.96 51.3111 328.96 51.2176 328.867 51.1242C327.279 48.5072 326.719 45.3295 327.466 42.3388C328.493 38.2264 327.933 33.7403 325.412 29.8149C320.836 22.7118 311.499 20.3752 304.122 24.3006C295.905 28.6933 293.291 39.0676 298.053 46.8249C300.294 50.5634 303.935 52.9934 307.857 53.928C311.032 54.7692 313.833 56.6384 315.514 59.3488C315.514 59.3488 315.514 59.4423 315.607 59.4423L315.981 60.0965" stroke="#D6DDE8" stroke-width="2" stroke-miterlimit="10" stroke-linecap="round" stroke-linejoin="round"/>
<path d="M329.427 52.0588L329.053 51.4046C328.96 51.3111 328.96 51.2176 328.867 51.1242C327.279 48.5072 326.719 45.3295 327.466 42.3388C328.493 38.2264 327.933 33.7403 325.412 29.8149C320.836 22.7118 311.499 20.3752 304.122 24.3006C295.905 28.6933 293.291 39.0676 298.053 46.8249C300.294 50.5634 303.935 52.9934 307.857 53.928C311.032 54.7692 313.833 56.6384 315.514 59.3488C315.514 59.3488 315.514 59.4423 315.607 59.4423L315.981 60.0965" stroke="#D6DDE8" stroke-width="2" stroke-miterlimit="10" stroke-linecap="round" stroke-linejoin="round"/>
<path d="M329.334 51.9658L329.707 52.5266C331.388 55.3305 331.201 58.7885 329.334 61.312C329.801 62.6205 329.334 64.2093 328.12 64.957C326.906 65.7047 325.225 65.4243 324.291 64.3963C321.21 64.957 318.035 63.5551 316.261 60.7512L315.888 60.1905" stroke="#D6DDE8" stroke-width="2" stroke-miterlimit="10" stroke-linecap="round" stroke-linejoin="round"/>
<path d="M329.334 61.3114C329.801 62.6198 329.334 64.2087 328.12 64.9564C326.906 65.7041 325.319 65.5172 324.385 64.3956C321.304 64.9564 318.129 63.5545 316.355 60.7506L315.982 60.1898L315.608 59.5356C315.608 59.5356 315.608 59.4421 315.515 59.4421C315.515 59.3487 315.608 59.2552 315.608 59.2552L328.774 51.124C328.774 51.2175 328.867 51.3109 328.961 51.4044L329.334 51.9652V52.0586L329.614 52.526C331.388 55.3298 331.202 58.7879 329.334 61.3114Z" fill="#F1F3FA" stroke="#D6DDE8" stroke-width="2" stroke-miterlimit="10" stroke-linecap="round" stroke-linejoin="round"/>
<path d="M320.929 55.6107L304.309 43.4606L309.631 42.6195L311.685 38.3202L316.447 38.4137L319.622 34.021L322.984 54.3957" stroke="#D6DDE8" stroke-width="2" stroke-miterlimit="10" stroke-linecap="round" stroke-linejoin="round"/>
<path d="M320.929 55.6107L304.309 43.4606L309.631 42.6195L311.685 38.3202L316.447 38.4137L319.622 34.021L322.984 54.3957" stroke="#D6DDE8" stroke-width="2" stroke-miterlimit="10" stroke-linecap="round" stroke-linejoin="round"/>
<path d="M324.479 20.9357L327.56 14.0195" stroke="#D6DDE8" stroke-width="2" stroke-miterlimit="10" stroke-linecap="round" stroke-linejoin="round"/>
<path d="M291.143 43.647L277.23 46.2639" stroke="#D6DDE8" stroke-width="2" stroke-miterlimit="10" stroke-linecap="round" stroke-linejoin="round"/>
<path d="M295.719 54.9561L292.357 63.3676" stroke="#D6DDE8" stroke-width="2" stroke-miterlimit="10" stroke-linecap="round" stroke-linejoin="round"/>
<path d="M332.882 30.8425L343.993 26.6367" stroke="#D6DDE8" stroke-width="2" stroke-miterlimit="10" stroke-linecap="round" stroke-linejoin="round"/>
<path d="M380.129 97.8545L365.656 111.22L369.391 114.958C369.765 115.332 370.045 115.799 370.325 116.266C370.325 116.266 370.325 116.36 370.418 116.453C370.978 117.949 370.605 119.631 369.484 120.846L368.271 122.061L363.975 126.36L357.159 133.183L337.644 113.65L348.755 102.528L349.969 101.313C351.556 99.7237 354.171 99.7237 355.852 101.313L359.587 105.051L372.939 90.5645C374.9 88.4149 378.355 88.3214 380.409 90.3775C382.37 92.5272 382.277 95.8918 380.129 97.8545Z" fill="white" stroke="#D6DDE8" stroke-width="2" stroke-miterlimit="10"/>
<path d="M368.177 121.968L348.755 102.434" stroke="#D6DDE8" stroke-width="2" stroke-miterlimit="10"/>
<path d="M362.015 102.154L368.458 108.603" stroke="#D6DDE8" stroke-width="2" stroke-miterlimit="10"/>
<path d="M378.253 94.6142C378.873 93.9937 378.873 92.9877 378.253 92.3673C377.633 91.7468 376.628 91.7468 376.008 92.3673C375.388 92.9877 375.388 93.9937 376.008 94.6142C376.628 95.2347 377.633 95.2347 378.253 94.6142Z" fill="#D6DDE8"/>
<path d="M342.125 117.668L347.821 111.967" stroke="#D6DDE8" stroke-width="2" stroke-miterlimit="10"/>
<path d="M346.141 121.78L351.93 115.986" stroke="#D6DDE8" stroke-width="2" stroke-miterlimit="10"/>
<path d="M353.518 162.437C354.858 162.437 355.945 161.349 355.945 160.007C355.945 158.665 354.858 157.577 353.518 157.577C352.177 157.577 351.09 158.665 351.09 160.007C351.09 161.349 352.177 162.437 353.518 162.437Z" fill="#D6DCE8" stroke="#AAB2C5" stroke-width="2" stroke-miterlimit="10" stroke-linejoin="round"/>
<path d="M370.325 116.454C370.325 116.36 370.325 116.36 370.232 116.267C369.952 115.799 369.298 116.36 368.177 118.042C367.711 118.79 366.777 119.164 365.656 119.444C365.003 119.631 364.162 119.818 363.415 119.912C362.668 119.631 361.828 119.725 361.268 120.192C360.988 120.379 360.707 120.566 360.521 120.753C359.307 121.594 357.906 122.155 355.665 121.687C353.518 121.22 351.09 124.211 351.09 126.641V149.726C351.09 152.904 355.945 152.997 355.945 149.633V135.52C355.945 132.529 360.801 131.875 360.801 136.081C360.801 139.258 365.656 139.352 365.656 135.894V125.519C365.656 125.146 365.656 124.865 365.656 124.585L368.177 122.061L369.391 120.846C370.512 119.631 370.885 117.855 370.325 116.454Z" fill="#D6DCE8" stroke="#AAB2C5" stroke-width="2" stroke-miterlimit="10" stroke-linejoin="round"/>
<path d="M224.193 73.8348C222.979 74.9563 220.925 74.9563 219.711 73.8348C219.618 73.7413 219.524 73.6479 219.431 73.5544C219.151 73.1805 218.964 72.7132 218.777 72.3394C218.497 71.3113 218.777 70.1898 219.524 69.2551C220.178 68.5074 220.925 67.8532 221.579 67.1055C221.765 66.9186 222.046 66.9186 222.139 67.1055C222.979 67.8532 223.726 68.6009 224.38 69.3486C224.473 69.4421 224.473 69.4421 224.473 69.5355C224.66 69.8159 224.847 70.0028 224.94 70.2832C225.594 71.4048 225.314 72.9002 224.193 73.8348Z" fill="#F1F3FA" stroke="#D6DDE8" stroke-width="2" stroke-miterlimit="10" stroke-linecap="round" stroke-linejoin="round"/>
<path d="M222.232 72.9004C221.952 72.9004 221.765 72.9004 221.485 72.8069C221.018 72.62 220.831 72.5265 220.644 72.1527C220.551 71.9658 220.458 71.7788 220.364 71.5919C220.364 71.4985 220.364 71.4985 220.364 71.405C220.271 71.1246 220.084 70.9377 219.804 71.0311C219.524 71.1246 219.337 71.3115 219.431 71.5919C219.431 71.6854 219.431 71.7788 219.524 71.8723C219.617 72.2462 219.804 72.62 220.084 72.9004C220.178 72.9938 220.271 73.0873 220.364 73.1808C220.831 73.6481 221.578 73.9285 222.232 73.9285C222.325 73.9285 222.419 73.9285 222.512 73.9285C222.792 73.9285 222.979 73.6481 222.979 73.3677C222.699 73.0873 222.512 72.9004 222.232 72.9004Z" fill="#F1F3FA"/>
<path d="M240.44 46.5438L233.811 53.3666L226.434 60.937C226.247 61.1239 225.967 61.3108 225.687 61.3108L222.606 62.152C221.859 62.3389 221.205 61.6847 221.485 61.0304L222.326 57.9462C222.419 57.6658 222.512 57.4789 222.699 57.1985L226.621 53.0862L236.705 42.7119" fill="#F1F3FA"/>
<path d="M240.44 46.5438L233.811 53.3666L226.434 60.937C226.247 61.1239 225.967 61.3108 225.687 61.3108L222.606 62.152C221.859 62.3389 221.205 61.6847 221.485 61.0304L222.326 57.9462C222.419 57.6658 222.512 57.4789 222.699 57.1985L226.621 53.0862L236.705 42.7119" stroke="#D6DDE8" stroke-width="2" stroke-miterlimit="10" stroke-linecap="round" stroke-linejoin="round"/>
<path d="M233.811 53.4605L226.434 61.0309C226.247 61.2178 225.967 61.4047 225.687 61.4047L222.606 62.2459C221.859 62.4328 221.205 61.7786 221.485 61.1244L222.326 58.0401C222.419 57.7597 222.512 57.5728 222.699 57.2924L226.621 53.1801C226.901 53.0866 227.274 52.9932 227.555 52.9932L233.811 53.4605Z" fill="#F1F3FA" stroke="#D6DDE8" stroke-width="2" stroke-miterlimit="10" stroke-linecap="round" stroke-linejoin="round"/>
<path d="M241.654 47.7595L235.585 41.6844C234.931 41.0302 234.931 40.0956 235.585 39.4414C236.239 38.7871 237.172 38.7871 237.826 39.4414L243.895 45.5164C244.549 46.1706 244.549 47.1052 243.895 47.7595C243.242 48.4137 242.308 48.4137 241.654 47.7595Z" fill="#F1F3FA" stroke="#D6DDE8" stroke-width="2" stroke-miterlimit="10" stroke-linecap="round" stroke-linejoin="round"/>
<path d="M242.868 44.5816L238.666 40.3758L242.868 36.17C244.082 34.955 245.949 34.955 247.07 36.17C248.284 37.385 248.284 39.2543 247.07 40.3758L242.868 44.5816Z" fill="#F1F3FA" stroke="#D6DDE8" stroke-width="2" stroke-miterlimit="10" stroke-linecap="round" stroke-linejoin="round"/>
<path d="M264.396 221.803C266.062 212.908 268.469 204.383 271.061 195.674C273.652 187.149 276.43 178.44 279.762 170.101L281.058 170.471C279.577 179.366 277.54 188.076 275.319 196.785C273.097 205.495 270.69 214.205 267.543 222.544L264.396 221.803Z" fill="#D6DCE8" stroke="#AAB2C5" stroke-width="2" stroke-miterlimit="10" stroke-linejoin="round"/>
<path d="M259.582 227.548L263.182 220.071H269.434L272.655 227.548H259.582Z" fill="#D6DCE8" stroke="#AAB2C5" stroke-width="2" stroke-miterlimit="10" stroke-linejoin="round"/>
</svg>
